<svg class="desk-mark-product-colours" data-name="Teamwork Desk" xmlns="http://www.w3.org/2000/svg" viewBox="0 0 194.691 117.194">
  <title>desk-mark-product-colours</title>
  <path class="shape-front" d="M151,89.782l-1.21-17c-4.43-3.21-7.41-9.06-7.85-15.62s1.69-12.28,5.62-15.53l-1.15-16.07c-.26-3.65-2.51-7-5.28-7.4L11.9.162a11.3,11.3,0,0,0-9,2.34A8.11,8.11,0,0,0,0,8.792v24.89c9.18,5,14.87,13.77,14.93,23.18C15,66.422,9.311,75.352,0,80.492v26.69a9.6,9.6,0,0,0,3.31,7.38,11.7,11.7,0,0,0,9.39,2.46s131.07-19,134.12-19.5S151.221,93.272,151,89.782Z" transform="translate(0 0)" fill="#65d656"/>
  <path class="shape-back" d="M194.691,56.552v-17c0-4.63-4.12-7.95-9.86-7.4l-30.71,3,.43,6,.26,3.62-2.8,2.31c-2.19,1.8-3.37,5.49-3.08,9.63.3,4.42,2.2,8.41,5,10.4l2.66,1.92.23,3.28,1.21,17c.56,7.8-3.68,14.19-10.08,15.19l-17.64,2.52,53.94,4.42c5.71.47,10.44-3.32,10.44-8.43v-18.1c-6.11-2.75-10.19-8.14-10.14-14.22S188.671,59.342,194.691,56.552Z" transform="translate(0 0)" fill="#9be491"/>
  <path class="shape-tw" d="M43.047,32.832a6.42,6.42,0,0,0-2.269,4.679c-.287,3.729.134,6.375-.637,6.917-1.186.88-3.5-.529-5.482,1.275a4.265,4.265,0,0,0-1.423,3.429,4.953,4.953,0,0,0,1.912,3.946c2.4,1.83,3.825.829,5.1,2.206a3.251,3.251,0,0,1,.6,2.212c-.147,6.375-.1,21.037,0,22.051.166,1.912.5,10.072,4.341,12.75s7.592,2.059,11.921,1.275c4.45-.778,15.14-2.6,15.14-2.6a13.09,13.09,0,0,1-6.012-4.367,10.436,10.436,0,0,1-1.46-4.373c-.255-2.333-.963-23.383-.95-23.8,0-.523.038-1.734,2.085-1.689a34.73,34.73,0,0,0,3.5.045c1.033-.127,2.1-1.543,2.1-3.219,0-3.615-3.825-4.367-4.386-4.4s-2.811-.351-3.411-1.415c-.892-1.594-.484-4.424-.637-5.91a9.639,9.639,0,0,0-2.034-5.055,7.325,7.325,0,0,0-2.824-2.231,31.925,31.925,0,0,0-10.589-2.869A6.194,6.194,0,0,0,43.047,32.832Zm5.3-15.284c2.662-1.537,6.434.013,8.425,3.461s1.447,7.49-1.215,9.027-6.434-.013-8.425-3.461-1.444-7.494,1.218-9.031Zm30.33,6.018c2.394-1.382,5.785.012,7.575,3.113s1.3,6.735-1.092,8.117-5.785-.012-7.575-3.113-1.3-6.739,1.1-8.121ZM123.54,59.4c-.9-7.522-1.868-13.12-1.868-13.12A5.374,5.374,0,0,0,118.147,42a18.251,18.251,0,0,0-4.112-.746c-2.99-.325-2.939,2.658-2.83,3.933.261,3.054,3.258,32.952,3.187,33.787a.867.867,0,0,1-1.453.465c-.376-.606-3.538-30.211-3.678-31.052a6.152,6.152,0,0,0-3.933-5.1,28.566,28.566,0,0,0-5.941-1.116A3.868,3.868,0,0,0,96.1,43.5a4.9,4.9,0,0,0-.79,3c.173,2.331,2.232,28.931,2.653,35.12.045.637-1.275,1.4-1.7.472-.491-1.109-3.615-33.628-3.825-35.221-.159-1.186-.351-6.254-3.264-8.1-2.218-1.409-8.734-2.952-11.073-2.55-3.3.28-5.2,2.639-4.864,10.321.3,7.057,1.275,25.009,1.766,29.1.229,1.912.854,6.751,2.416,8.823s3.245,3.417,7.121,3.742S98.716,86.3,101.2,86.053c0,0,17.423-3.066,18.71-3.347,1.173-.255,5.272-.892,5.387-7.395.042-3.239-1-9.64-1.756-15.919ZM98.426,31.182c2.128-1.229,5.144.01,6.735,2.766s1.156,5.987-.972,7.216-5.144-.01-6.735-2.766S96.3,32.411,98.426,31.182Zm13.666-.894c2.128-1.229,5.144.01,6.735,2.766s1.156,5.987-.972,7.216-5.144-.01-6.735-2.766-1.156-5.987.973-7.216Z" transform="translate(0 0)" fill="#fff"/>
</svg>
